<?xml version="1.0" encoding="UTF-8"?>
<svg version="1.1" xmlns="http://www.w3.org/2000/svg" width="512" height="512">
<path d="M0 0 C1.17949219 -0.03738281 2.35898437 -0.07476563 3.57421875 -0.11328125 C11.04798244 0.73796247 16.30794423 4.70725508 21.43725586 9.96728516 C21.9927713 10.5206102 22.54828674 11.07393524 23.12063599 11.64402771 C24.93264561 13.4537478 26.73003968 15.27724697 28.52734375 17.1015625 C29.79066308 18.36981098 31.05480109 19.63724445 32.31971741 20.90390015 C34.95729123 23.54908492 37.58829347 26.2005675 40.21411133 28.85742188 C43.5838384 32.26690461 46.96441186 35.66536406 50.34923458 39.05985451 C53.57882284 42.29939596 56.80342445 45.54388082 60.02734375 48.7890625 C60.64371138 49.40882587 61.260079 50.02858925 61.89512444 50.66713333 C63.63067222 52.41422247 65.36267821 54.16473999 67.09350586 55.91650391 C67.61033432 56.43602127 68.12716278 56.95553864 68.65965271 57.49079895 C72.19757427 61.08264854 72.19757427 61.08264854 73.3125 63.3125 C73.20550781 63.95960937 73.09851563 64.60671875 72.98828125 65.2734375 C72.44674173 68.87205494 72.35709933 71.76210547 74.32470703 74.95507812 C77.86625651 79.53217614 82.17651084 84.72729405 88.0546875 85.82421875 C90.53380764 85.65881112 90.53380764 85.65881112 92.85587692 85.26827145 C96.01130887 85.32508122 96.86190373 86.17564528 99.12628174 88.32093811 C100.16334133 89.28945804 100.16334133 89.28945804 101.22135162 90.27754402 C102.25647007 91.28484723 102.25647007 91.28484723 103.3125 92.3125 C103.94152977 92.91384703 104.57055954 93.51519405 105.21865082 94.13476372 C107.1775365 96.02757858 109.1119745 97.94276176 111.04199219 99.86499023 C111.76825302 100.58467987 112.49451385 101.30436951 113.24278259 102.04586792 C115.61785094 104.40140634 117.98904571 106.76078706 120.359375 109.12109375 C121.17448799 109.93213121 121.98960098 110.74316868 122.82941437 111.57878304 C127.13581744 115.86442155 131.43900461 120.15326041 135.73974609 124.44458008 C140.17194733 128.86567968 144.61570901 133.27497012 149.06211472 137.681777 C152.49175524 141.08526057 155.91246838 144.49761176 159.33084869 147.9124012 C160.96530101 149.5419928 162.60312125 151.1682139 164.24440765 152.79092216 C166.53934969 155.06147261 168.82128765 157.3443756 171.10058594 159.63061523 C172.11211983 160.62293404 172.11211983 160.62293404 173.14408875 161.63529968 C179.12654053 167.68421726 182.88499704 173.52258511 182.875 182.25 C182.89691406 183.37277344 182.91882813 184.49554688 182.94140625 185.65234375 C181.07557151 196.51127019 172.51914678 203.67246425 165.04095459 211.09197998 C163.76764339 212.36990409 162.49520482 213.64869819 161.22356153 214.92828202 C157.73809985 218.43040624 154.24031556 221.91998868 150.74031949 225.40757918 C146.96341113 229.1754269 143.19804423 232.95477875 139.4311676 236.73265076 C132.054512 244.12708525 124.66709216 251.51067417 117.27574626 258.89042154 C111.26840011 264.88873119 105.26497316 270.89093726 99.26432037 276.89594269 C98.41000971 277.75086629 97.55569904 278.60578989 96.67550017 279.48662026 C94.93995748 281.22344186 93.20442376 282.96027243 91.46889892 284.69711187 C75.19751401 300.97990075 58.91389514 317.2504106 42.62606373 333.5167456 C28.65309659 347.47184196 14.69065017 361.43739254 0.73583984 375.41064453 C-15.47262323 391.64051752 -31.6875606 407.86387673 -47.91287208 424.0769074 C-49.64327553 425.80603667 -51.37367065 427.5351743 -53.10405731 429.26432037 C-53.95542604 430.115072 -54.80679476 430.96582362 -55.68396254 431.84235559 C-61.68074269 437.83568323 -67.67287111 443.83363753 -73.66321564 449.83339691 C-80.96436758 457.14577152 -88.27261217 464.45096756 -95.59001908 471.74707738 C-99.32270274 475.46925443 -103.05212744 479.1945472 -106.77293968 482.92859459 C-110.18052161 486.34811378 -113.59723361 489.75822716 -117.02139613 493.16114083 C-118.25704484 494.39232923 -119.4893513 495.62688327 -120.71790436 496.86515221 C-135.10025906 511.35247248 -135.10025906 511.35247248 -144.34765625 512.94140625 C-145.47042969 512.91949219 -146.59320313 512.89757812 -147.75 512.875 C-148.87535156 512.87628906 -150.00070313 512.87757813 -151.16015625 512.87890625 C-160.89515512 511.31570045 -166.64859297 504.90465261 -173.27734375 498.1484375 C-174.27161827 497.14923086 -175.26671442 496.15084119 -176.2625885 495.15322876 C-178.33524418 493.07297531 -180.4013034 490.98647528 -182.4621582 488.89453125 C-185.10545405 486.21143043 -187.75961647 483.53942167 -190.41805172 480.87132835 C-192.9580368 478.32138866 -195.49303537 475.76651735 -198.02734375 473.2109375 C-198.75258397 472.48060366 -198.75258397 472.48060366 -199.49247551 471.73551559 C-200.85440982 470.36202988 -202.21234013 468.98457729 -203.57006836 467.60693359 C-204.34313828 466.82401947 -205.11620819 466.04110535 -205.91270447 465.23446655 C-209.18706237 461.68858971 -208.77032868 459.03373487 -208.6875 454.3125 C-208.6875 449.94999047 -211.30729757 448.02578519 -214.1875 445.0625 C-214.6928125 444.4953125 -215.198125 443.928125 -215.71875 443.34375 C-217.31429965 441.70033386 -218.68317144 440.42774034 -220.6875 439.3125 C-223.45120138 439.27232992 -225.94372579 439.84057084 -228.6875 440.3125 C-232.26590205 438.55842714 -234.9442456 436.30909273 -237.75453186 433.51289368 C-238.52972672 432.74622879 -239.30492157 431.9795639 -240.10360718 431.18966675 C-241.35761826 429.93429611 -241.35761826 429.93429611 -242.63696289 428.65356445 C-243.52859634 427.76864822 -244.4202298 426.88373199 -245.33888245 425.97200012 C-247.77754046 423.55096312 -250.20971908 421.12351724 -252.64021993 418.69429421 C-254.16132239 417.17461621 -255.68384133 415.65637244 -257.20687675 414.13863182 C-262.52685517 408.83714131 -267.84165675 403.53052405 -273.15161133 398.21899414 C-278.09067243 393.27873222 -283.04077153 388.34972698 -287.99620253 383.42589027 C-292.2591322 379.18916797 -296.51425792 374.94471296 -300.76346582 370.69422883 C-303.29749656 368.15968973 -305.83449068 365.62830844 -308.37938118 363.10466957 C-311.2200473 360.28708128 -314.04430974 357.453575 -316.86743164 354.6184082 C-317.70546326 353.7916156 -318.54349487 352.964823 -319.40692139 352.11297607 C-325.78493486 345.66568925 -330.26084727 339.84466254 -330.25 330.375 C-330.27191406 329.25222656 -330.29382813 328.12945312 -330.31640625 326.97265625 C-328.44911613 316.10525973 -319.88331223 308.9465798 -312.39576721 301.52629089 C-311.12031433 300.24765862 -309.84573778 298.9681517 -308.57195991 297.68785077 C-305.08069664 294.18379589 -301.57711716 290.69228976 -298.07134235 287.20276177 C-294.2883254 283.43292667 -290.51687749 279.65154795 -286.74395752 275.87161255 C-279.35609547 268.47367696 -271.9576118 261.08645257 -264.55546112 253.70281675 C-255.93631208 245.10445163 -247.327643 236.49562585 -238.71936702 227.88637749 C-223.3614136 212.52742321 -207.99382384 197.17814694 -192.62084961 181.83422852 C-177.70148036 166.94304317 -162.78914281 152.0448628 -147.88452148 137.13891602 C-146.96624589 136.22056051 -146.04797029 135.302205 -145.10186816 134.35602053 C-144.18518424 133.4392559 -143.26850031 132.52249127 -142.32403809 131.57794589 C-125.35647159 114.60899995 -108.38233458 97.64664011 -91.40512653 80.68734076 C-85.40010933 74.68835743 -79.39704781 68.68742129 -73.39459419 62.68587303 C-66.08197783 55.37462052 -58.76559466 48.0671611 -51.44447679 40.76442125 C-47.7086445 37.0378263 -43.97440314 33.30967404 -40.24444389 29.57719994 C-36.83089448 26.16146061 -33.41276944 22.75037126 -29.99090718 19.34296028 C-28.75301913 18.10869873 -27.51681006 16.87275054 -26.28244609 15.63496461 C-24.60538519 13.95376947 -22.9223081 12.27883375 -21.23758793 10.60531902 C-19.83706797 9.20691234 -19.83706797 9.20691234 -18.40825468 7.78025502 C-12.47667469 2.40024542 -7.9684501 0.16367627 0 0 Z " fill="#010202" transform="translate(329.6875,-0.3125)"/>
<path d="M0 0 C1.17949219 -0.03738281 2.35898437 -0.07476563 3.57421875 -0.11328125 C11.04798244 0.73796247 16.30794423 4.70725508 21.43725586 9.96728516 C21.9927713 10.5206102 22.54828674 11.07393524 23.12063599 11.64402771 C24.93264561 13.4537478 26.73003968 15.27724697 28.52734375 17.1015625 C29.79066308 18.36981098 31.05480109 19.63724445 32.31971741 20.90390015 C34.95729123 23.54908492 37.58829347 26.2005675 40.21411133 28.85742188 C43.5838384 32.26690461 46.96441186 35.66536406 50.34923458 39.05985451 C53.57882284 42.29939596 56.80342445 45.54388082 60.02734375 48.7890625 C60.64371138 49.40882587 61.260079 50.02858925 61.89512444 50.66713333 C63.63067222 52.41422247 65.36267821 54.16473999 67.09350586 55.91650391 C67.61033432 56.43602127 68.12716278 56.95553864 68.65965271 57.49079895 C72.19757427 61.08264854 72.19757427 61.08264854 73.3125 63.3125 C73.20550781 63.95960937 73.09851563 64.60671875 72.98828125 65.2734375 C72.44674173 68.87205494 72.35709933 71.76210547 74.32470703 74.95507812 C77.86625651 79.53217614 82.17651084 84.72729405 88.0546875 85.82421875 C90.53380764 85.65881112 90.53380764 85.65881112 92.85587692 85.26827145 C96.01130887 85.32508122 96.86190373 86.17564528 99.12628174 88.32093811 C100.16334133 89.28945804 100.16334133 89.28945804 101.22135162 90.27754402 C102.25647007 91.28484723 102.25647007 91.28484723 103.3125 92.3125 C103.94152977 92.91384703 104.57055954 93.51519405 105.21865082 94.13476372 C107.1775365 96.02757858 109.1119745 97.94276176 111.04199219 99.86499023 C111.76825302 100.58467987 112.49451385 101.30436951 113.24278259 102.04586792 C115.61785094 104.40140634 117.98904571 106.76078706 120.359375 109.12109375 C121.17448799 109.93213121 121.98960098 110.74316868 122.82941437 111.57878304 C127.13581744 115.86442155 131.43900461 120.15326041 135.73974609 124.44458008 C140.17194733 128.86567968 144.61570901 133.27497012 149.06211472 137.681777 C152.49175524 141.08526057 155.91246838 144.49761176 159.33084869 147.9124012 C160.96530101 149.5419928 162.60312125 151.1682139 164.24440765 152.79092216 C166.53934969 155.06147261 168.82128765 157.3443756 171.10058594 159.63061523 C172.11211983 160.62293404 172.11211983 160.62293404 173.14408875 161.63529968 C179.12654053 167.68421726 182.88499704 173.52258511 182.875 182.25 C182.89691406 183.37277344 182.91882813 184.49554688 182.94140625 185.65234375 C181.07557151 196.51127019 172.51914678 203.67246425 165.04095459 211.09197998 C163.76764339 212.36990409 162.49520482 213.64869819 161.22356153 214.92828202 C157.73809985 218.43040624 154.24031556 221.91998868 150.74031949 225.40757918 C146.96341113 229.1754269 143.19804423 232.95477875 139.4311676 236.73265076 C132.054512 244.12708525 124.66709216 251.51067417 117.27574626 258.89042154 C111.26840011 264.88873119 105.26497316 270.89093726 99.26432037 276.89594269 C98.41000971 277.75086629 97.55569904 278.60578989 96.67550017 279.48662026 C94.93995748 281.22344186 93.20442376 282.96027243 91.46889892 284.69711187 C75.19751401 300.97990075 58.91389514 317.2504106 42.62606373 333.5167456 C28.65309659 347.47184196 14.69065017 361.43739254 0.73583984 375.41064453 C-15.47262323 391.64051752 -31.6875606 407.86387673 -47.91287208 424.0769074 C-49.64327553 425.80603667 -51.37367065 427.5351743 -53.10405731 429.26432037 C-53.95542604 430.115072 -54.80679476 430.96582362 -55.68396254 431.84235559 C-61.68074269 437.83568323 -67.67287111 443.83363753 -73.66321564 449.83339691 C-80.96436758 457.14577152 -88.27261217 464.45096756 -95.59001908 471.74707738 C-99.32270274 475.46925443 -103.05212744 479.1945472 -106.77293968 482.92859459 C-110.18052161 486.34811378 -113.59723361 489.75822716 -117.02139613 493.16114083 C-118.25704484 494.39232923 -119.4893513 495.62688327 -120.71790436 496.86515221 C-135.10025906 511.35247248 -135.10025906 511.35247248 -144.34765625 512.94140625 C-145.47042969 512.91949219 -146.59320313 512.89757812 -147.75 512.875 C-148.87535156 512.87628906 -150.00070313 512.87757813 -151.16015625 512.87890625 C-160.89515512 511.31570045 -166.64859297 504.90465261 -173.27734375 498.1484375 C-174.27161827 497.14923086 -175.26671442 496.15084119 -176.2625885 495.15322876 C-178.33524418 493.07297531 -180.4013034 490.98647528 -182.4621582 488.89453125 C-185.10545405 486.21143043 -187.75961647 483.53942167 -190.41805172 480.87132835 C-192.9580368 478.32138866 -195.49303537 475.76651735 -198.02734375 473.2109375 C-198.75258397 472.48060366 -198.75258397 472.48060366 -199.49247551 471.73551559 C-200.85440982 470.36202988 -202.21234013 468.98457729 -203.57006836 467.60693359 C-204.34313828 466.82401947 -205.11620819 466.04110535 -205.91270447 465.23446655 C-209.18706237 461.68858971 -208.77032868 459.03373487 -208.6875 454.3125 C-208.6875 449.94999047 -211.30729757 448.02578519 -214.1875 445.0625 C-214.6928125 444.4953125 -215.198125 443.928125 -215.71875 443.34375 C-217.31429965 441.70033386 -218.68317144 440.42774034 -220.6875 439.3125 C-223.45120138 439.27232992 -225.94372579 439.84057084 -228.6875 440.3125 C-232.26590205 438.55842714 -234.9442456 436.30909273 -237.75453186 433.51289368 C-238.52972672 432.74622879 -239.30492157 431.9795639 -240.10360718 431.18966675 C-241.35761826 429.93429611 -241.35761826 429.93429611 -242.63696289 428.65356445 C-243.52859634 427.76864822 -244.4202298 426.88373199 -245.33888245 425.97200012 C-247.77754046 423.55096312 -250.20971908 421.12351724 -252.64021993 418.69429421 C-254.16132239 417.17461621 -255.68384133 415.65637244 -257.20687675 414.13863182 C-262.52685517 408.83714131 -267.84165675 403.53052405 -273.15161133 398.21899414 C-278.09067243 393.27873222 -283.04077153 388.34972698 -287.99620253 383.42589027 C-292.2591322 379.18916797 -296.51425792 374.94471296 -300.76346582 370.69422883 C-303.29749656 368.15968973 -305.83449068 365.62830844 -308.37938118 363.10466957 C-311.2200473 360.28708128 -314.04430974 357.453575 -316.86743164 354.6184082 C-317.70546326 353.7916156 -318.54349487 352.964823 -319.40692139 352.11297607 C-325.78493486 345.66568925 -330.26084727 339.84466254 -330.25 330.375 C-330.27191406 329.25222656 -330.29382813 328.12945312 -330.31640625 326.97265625 C-328.44911613 316.10525973 -319.88331223 308.9465798 -312.39576721 301.52629089 C-311.12031433 300.24765862 -309.84573778 298.9681517 -308.57195991 297.68785077 C-305.08069664 294.18379589 -301.57711716 290.69228976 -298.07134235 287.20276177 C-294.2883254 283.43292667 -290.51687749 279.65154795 -286.74395752 275.87161255 C-279.35609547 268.47367696 -271.9576118 261.08645257 -264.55546112 253.70281675 C-255.93631208 245.10445163 -247.327643 236.49562585 -238.71936702 227.88637749 C-223.3614136 212.52742321 -207.99382384 197.17814694 -192.62084961 181.83422852 C-177.70148036 166.94304317 -162.78914281 152.0448628 -147.88452148 137.13891602 C-146.96624589 136.22056051 -146.04797029 135.302205 -145.10186816 134.35602053 C-144.18518424 133.4392559 -143.26850031 132.52249127 -142.32403809 131.57794589 C-125.35647159 114.60899995 -108.38233458 97.64664011 -91.40512653 80.68734076 C-85.40010933 74.68835743 -79.39704781 68.68742129 -73.39459419 62.68587303 C-66.08197783 55.37462052 -58.76559466 48.0671611 -51.44447679 40.76442125 C-47.7086445 37.0378263 -43.97440314 33.30967404 -40.24444389 29.57719994 C-36.83089448 26.16146061 -33.41276944 22.75037126 -29.99090718 19.34296028 C-28.75301913 18.10869873 -27.51681006 16.87275054 -26.28244609 15.63496461 C-24.60538519 13.95376947 -22.9223081 12.27883375 -21.23758793 10.60531902 C-19.83706797 9.20691234 -19.83706797 9.20691234 -18.40825468 7.78025502 C-12.47667469 2.40024542 -7.9684501 0.16367627 0 0 Z M-16.63689041 55.01020813 C-17.09907518 55.46948602 -17.56125995 55.9287639 -18.03745031 56.4019593 C-19.57832927 57.9355643 -21.11201807 59.47615826 -22.64581299 61.0168457 C-23.76283952 62.1315668 -24.8803015 63.24585169 -25.99816012 64.35973835 C-29.06367922 67.41691261 -32.12293435 70.48028846 -35.18118286 73.54473352 C-38.48226321 76.85033849 -41.78909244 80.15018385 -45.09518433 83.45077515 C-51.56835074 89.91504664 -58.03609648 96.38471559 -64.50191739 102.85633349 C-69.75552306 108.11445447 -75.0110758 113.37062186 -80.26802826 118.62539673 C-81.01598541 119.37304741 -81.76394256 120.1206981 -82.53456508 120.89100486 C-84.05396993 122.40977028 -85.57337928 123.9285312 -87.09279308 125.44728768 C-101.34055429 139.68934551 -115.58217811 153.93752785 -129.82171378 168.18780911 C-142.04629177 180.42132628 -154.27610922 192.64958501 -166.50976562 204.87402344 C-180.71187989 219.06544153 -194.91075291 233.26008959 -209.10444713 247.45992947 C-210.61703882 248.97315827 -212.12963469 250.48638289 -213.6422348 251.99960327 C-214.38649322 252.74417024 -215.13075165 253.48873722 -215.89756335 254.25586683 C-221.14870771 259.50873981 -226.40217297 264.75928474 -231.65653229 270.00894165 C-238.05606039 276.40286835 -244.45202873 282.80033026 -250.84342006 289.20239091 C-254.10592992 292.47016688 -257.37003669 295.73630495 -260.63847733 298.99814987 C-263.62800269 301.98173336 -266.61290338 304.9698624 -269.59411988 307.96174753 C-270.67566805 309.04553717 -271.75892046 310.12762921 -272.84400359 311.20787966 C-274.31447367 312.67229993 -275.77869484 314.1426953 -277.24147415 315.61479187 C-278.05765819 316.43130061 -278.87384223 317.24780935 -279.71475911 318.08906078 C-282.62309841 321.36699541 -284.09493271 324.02255444 -283.875 328.4375 C-283.20911698 332.6514166 -281.75786701 334.76572529 -278.86065674 337.86073303 C-278.04374611 338.73573519 -277.22683548 339.61073734 -276.38516998 340.51225471 C-271.54979017 345.53149339 -266.6587208 350.48908023 -261.72949219 355.41577148 C-260.55382949 356.59443366 -259.37836945 357.77329801 -258.20309448 358.9523468 C-255.04051047 362.1236862 -251.87476498 365.29185057 -248.7081213 368.45913577 C-246.72700666 370.44096474 -244.74660722 372.42350553 -242.7664566 374.40629768 C-235.85137878 381.3305947 -228.93375577 388.25233695 -222.01367188 395.17163086 C-215.57141697 401.61328307 -209.13478321 408.06051483 -202.7007091 414.51033729 C-197.16266132 420.06145517 -191.62077056 425.60871643 -186.07586408 431.15298325 C-182.7697694 434.45882316 -179.46524099 437.76619214 -176.16457367 441.07745171 C-173.06631764 444.18538189 -169.96330632 447.28848389 -166.8565712 450.38793755 C-165.718448 451.52501468 -164.58202777 452.66379932 -163.44745255 453.80441666 C-161.89751464 455.36207289 -160.34152257 456.91342299 -158.78387451 458.46336365 C-157.91525158 459.33253135 -157.04662865 460.20169905 -156.15168381 461.09720516 C-152.62449318 464.26814037 -149.99005507 466.14672026 -145.25 466.75 C-139.03666345 465.98695867 -135.04084569 461.91581756 -130.73810959 457.61479187 C-130.27592482 457.15551398 -129.81374005 456.6962361 -129.33754969 456.2230407 C-127.79667073 454.6894357 -126.26298193 453.14884174 -124.72918701 451.6081543 C-123.61216048 450.4934332 -122.4946985 449.37914831 -121.37683988 448.26526165 C-118.31132078 445.20808739 -115.25206565 442.14471154 -112.19381714 439.08026648 C-108.89273679 435.77466151 -105.58590756 432.47481615 -102.27981567 429.17422485 C-95.80664926 422.70995336 -89.33890352 416.24028441 -82.87308261 409.76866651 C-77.61947694 404.51054553 -72.3639242 399.25437814 -67.10697174 393.99960327 C-66.35901459 393.25195259 -65.61105744 392.5043019 -64.84043492 391.73399514 C-63.32103007 390.21522972 -61.80162072 388.6964688 -60.28220692 387.17771232 C-46.03444571 372.93565449 -31.79282189 358.68747215 -17.55328622 344.43719089 C-5.32870823 332.20367372 6.90110922 319.97541499 19.13476562 307.75097656 C33.33687989 293.55955847 47.53575291 279.36491041 61.72944713 265.16507053 C63.24203882 263.65184173 64.75463469 262.13861711 66.2672348 260.62539673 C67.38362243 259.50854627 67.38362243 259.50854627 68.52256335 258.36913317 C73.77370771 253.11626019 79.02717297 247.86571526 84.28153229 242.61605835 C90.68106039 236.22213165 97.07702873 229.82466974 103.46842006 223.42260909 C106.73092992 220.15483312 109.99503669 216.88869505 113.26347733 213.62685013 C116.25300269 210.64326664 119.23790338 207.6551376 122.21911988 204.66325247 C123.30066805 203.57946283 124.38392046 202.49737079 125.46900359 201.41712034 C126.93947367 199.95270007 128.40369484 198.4823047 129.86647415 197.01020813 C131.09075021 195.78544502 131.09075021 195.78544502 132.33975911 194.53593922 C135.12470138 191.39708308 136.17536884 189.20385257 136.8125 185.0625 C135.51485989 175.3301992 125.03502947 167.7444961 118.34375 161.0690918 C117.13053544 159.85152373 115.91773745 158.63354046 114.70532227 157.41517639 C111.42913709 154.12566439 108.14664205 150.84252004 104.86251831 147.56093574 C102.11700724 144.81649785 99.37448617 142.0690815 96.6319046 139.32171661 C90.16286593 132.8416064 83.68854258 126.3668099 77.2109375 119.89526367 C70.53339809 113.22377407 63.86511216 106.54313611 57.20124054 99.85799664 C51.4706022 94.10974398 45.73417525 88.36731341 39.9930954 82.62948924 C36.5679517 79.20615749 33.14506522 75.78064367 29.7277832 72.34946251 C26.51690385 69.12601092 23.29885434 65.90989385 20.07516479 62.69925499 C18.89466756 61.5211237 17.71671526 60.34043593 16.54153442 59.1570015 C14.93493673 57.53993738 13.31933221 55.93243188 11.70117188 54.32695007 C10.8000769 53.42568736 9.89898193 52.52442465 8.97058105 51.59585094 C5.36678072 48.50010603 2.03291702 46.56339415 -2.6875 45.875 C-8.52467745 46.72625504 -12.5903657 50.96529198 -16.63689041 55.01020813 Z " fill="#3CBFA0" transform="translate(329.6875,-0.3125)"/>
<path d="M0 0 C0.9590625 0.43054688 1.918125 0.86109375 2.90625 1.3046875 C23.69803906 11.63942971 36.79572589 30.38558279 44.3828125 51.76171875 C46.87240153 60.09226665 47.36601607 68.13230845 47.4375 76.8125 C47.4478125 77.85019531 47.458125 78.88789063 47.46875 79.95703125 C47.38729229 87.05290274 46.19980322 93.26484191 44 100 C43.62359375 101.15371094 43.2471875 102.30742187 42.859375 103.49609375 C34.90019234 124.59913793 21.10834845 142.14335336 0.5 151.875 C-6.13506939 154.86622684 -12.97153037 157.11357092 -20 159 C-20.60134766 159.1750708 -21.20269531 159.3501416 -21.82226562 159.53051758 C-42.51230075 163.99093659 -64.06627782 158.29467781 -82 148 C-85.57196459 145.55770923 -88.78634637 142.88984443 -92 140 C-92.59554687 139.54496094 -93.19109375 139.08992187 -93.8046875 138.62109375 C-108.07291244 127.60760215 -117.82251315 107.81023538 -120.58203125 90.30859375 C-123.27704657 66.09627918 -118.89723369 43.18509683 -103.8125 23.625 C-78.29177529 -7.73637676 -36.55359171 -16.44911627 0 0 Z " fill="#6ED5A2" transform="translate(293,180)"/>
<path d="M0 0 C0.8712289 3.14083075 0.970791 4.9009982 0.078125 8.05078125 C-1.23408041 13.45534445 -1.30492812 18.64668397 -1.25 24.1875 C-1.24105713 25.20489258 -1.23211426 26.22228516 -1.22290039 27.27050781 C-0.79785338 54.95802617 9.78699144 78.97671028 29.453125 98.43798828 C48.10669394 116.11147616 72.13837358 124.17383218 97.4375 124.1875 C98.62666016 124.19974609 99.81582031 124.21199219 101.04101562 124.22460938 C108.397641 124.24706632 108.397641 124.24706632 115.59765625 122.92578125 C118.93559375 122.01752501 119.87734191 122.02536897 123 123 C110.56742737 135.54925897 98.12066168 148.08425437 85.65671158 160.60234928 C79.8701027 166.41476426 74.0882736 172.23178991 68.31738281 178.05981445 C63.28876696 183.13819154 58.2514892 188.20778429 53.20351768 193.2669248 C50.52974191 195.94723166 47.86057568 198.63179774 45.20172882 201.32692146 C42.70085102 203.8616437 40.18858976 206.38448661 37.6669693 208.89856911 C36.2995287 210.26804915 34.94457287 211.64995951 33.58996582 213.03213501 C32.77670837 213.83851913 31.96345093 214.64490326 31.12554932 215.47572327 C30.42129948 216.18458207 29.71704964 216.89344088 28.99145889 217.62378025 C27 219 27 219 25.0569458 219.01251221 C22.14501742 217.57914287 20.25527032 215.62322619 17.96331787 213.32408142 C17.2231519 212.58776036 17.2231519 212.58776036 16.46803308 211.83656412 C14.81489847 210.18837453 13.17272069 208.5296845 11.53027344 206.87084961 C10.34807682 205.68780688 9.16521941 204.50542415 7.98175049 203.32365417 C4.76872567 200.11149134 1.56504496 196.89015185 -1.63706684 193.66711497 C-4.98427424 190.30117467 -8.3399591 186.94370814 -11.69476318 183.58534241 C-18.0471994 177.22357578 -24.39194853 170.85419932 -30.73398757 164.48206955 C-37.95414716 157.228397 -45.18281044 149.98322446 -52.41220903 142.73876178 C-67.2843036 127.83529563 -82.14565921 112.92116009 -97 98 C-92.26944145 92.31198958 -87.2060954 87.06985091 -81.96533203 81.85180664 C-81.07688095 80.96320953 -80.18842987 80.07461243 -79.27305603 79.15908813 C-76.85586711 76.74247322 -74.43649312 74.32808699 -72.01608896 71.91469502 C-69.47985876 69.3847499 -66.9464926 66.85194005 -64.41281128 64.31944275 C-59.62323711 59.53296677 -54.83112136 54.7490439 -50.03806961 49.96605057 C-44.57776393 44.51695315 -39.1203245 39.06498889 -33.66311479 33.61279118 C-22.4452454 22.40535192 -11.22381183 11.20148832 0 0 Z " fill="#C8F4AF" transform="translate(159,230)"/>
<path d="M0 0 C4.2550019 3.64714448 8.26837091 7.14055727 12.21435547 11.06045532 C12.69065053 11.53236813 13.16694559 12.00428094 13.65767384 12.49049413 C15.22983097 14.04945126 16.79853578 15.61183274 18.3671875 17.17431641 C19.50266098 18.30187517 20.63831137 19.4292558 21.77412415 20.55647278 C25.47812339 24.23445012 29.17684798 27.91770729 32.875 31.6015625 C34.15133016 32.87252825 35.42766687 34.14348744 36.70401001 35.41444016 C42.00790741 40.69675439 47.3103835 45.9804885 52.60914612 51.26795387 C60.19622705 58.83874724 67.79171007 66.40088434 75.398983 73.95138991 C80.75470486 79.26850024 86.10089119 84.59507777 91.439991 89.92887819 C94.62791689 93.11314388 97.81992463 96.29305533 101.02215576 99.46294022 C104.02736251 102.43821469 107.02064007 105.42497882 110.00499535 108.42116356 C111.10403226 109.52042233 112.20738829 110.6153816 113.31524086 111.70575523 C114.82243359 113.19044415 116.31355478 114.68958421 117.80151367 116.19351196 C119.06133308 117.44836616 119.06133308 117.44836616 120.34660339 118.72857094 C122 121 122 121 121.99533176 123.04493141 C120.73923524 125.51220407 119.23782958 127.13069939 117.2731781 129.08758545 C116.4724588 129.89242874 115.6717395 130.69727203 114.84675598 131.52650452 C113.9620311 132.40044357 113.07730621 133.27438263 112.16577148 134.17480469 C111.23903625 135.101978 110.31230103 136.02915131 109.35748291 136.98442078 C106.8167767 139.52598818 104.26692297 142.05819593 101.71534228 144.58883953 C99.05007701 147.2353588 96.39329753 149.89036867 93.73561096 152.54449463 C88.70194012 157.56883892 83.66067038 162.58548656 78.61663443 167.59942269 C72.87441588 173.30811628 67.14070735 179.02532453 61.40770233 184.74326849 C49.61458664 196.50502132 37.81081534 208.25602021 26 220 C24.85683078 216.33675328 25.49148152 214.15527323 26.50195312 210.47998047 C27.5529996 205.2463873 27.28484438 199.87917185 27.25 194.5625 C27.25773437 193.38623047 27.26546875 192.20996094 27.2734375 190.99804688 C27.25859896 184.36150959 26.7234374 178.40026535 25 172 C24.81179688 171.02933594 24.62359375 170.05867187 24.4296875 169.05859375 C19.51288302 145.82496133 3.51414642 124.95293838 -16 112 C-23.2825037 107.28114617 -30.52514131 103.55178211 -38.6875 100.625 C-39.35160889 100.38628174 -40.01571777 100.14756348 -40.69995117 99.90161133 C-50.73948999 96.51178048 -60.57692199 95.67632309 -71.125 95.75 C-72.24003906 95.74226563 -73.35507813 95.73453125 -74.50390625 95.7265625 C-80.28613314 95.74018376 -85.52420041 96.05491796 -91.09326172 97.66894531 C-93 98 -93 98 -97 97 C-64.99 64.99 -32.98 32.98 0 0 Z " fill="#C8F4AF" transform="translate(327,62)"/>
<path d="M0 0 C1.17949219 -0.03738281 2.35898437 -0.07476563 3.57421875 -0.11328125 C11.04798244 0.73796247 16.30794423 4.70725508 21.43725586 9.96728516 C21.9927713 10.5206102 22.54828674 11.07393524 23.12063599 11.64402771 C24.93264561 13.4537478 26.73003968 15.27724697 28.52734375 17.1015625 C29.79066308 18.36981098 31.05480109 19.63724445 32.31971741 20.90390015 C34.95729123 23.54908492 37.58829347 26.2005675 40.21411133 28.85742188 C43.5838384 32.26690461 46.96441186 35.66536406 50.34923458 39.05985451 C53.57882284 42.29939596 56.80342445 45.54388082 60.02734375 48.7890625 C60.64371138 49.40882587 61.260079 50.02858925 61.89512444 50.66713333 C63.63067222 52.41422247 65.36267821 54.16473999 67.09350586 55.91650391 C67.61033432 56.43602127 68.12716278 56.95553864 68.65965271 57.49079895 C71.84327682 60.72295059 73.22731208 62.14116605 73.5625 66.75 C73.3125 70.3125 73.3125 70.3125 71.9375 72.1875 C68.60828592 74.49234052 66.36013841 74.79749359 62.3125 74.3125 C60.07526315 72.63207624 58.34083141 71.09308749 56.43066406 69.09594727 C55.87704697 68.54160004 55.32342987 67.98725281 54.7530365 67.41610718 C52.93027673 65.58408463 51.12957813 63.7318635 49.328125 61.87890625 C48.06492617 60.60197265 46.80031778 59.32643203 45.53436279 58.05223083 C42.20765308 54.69696485 38.89891962 51.32452177 35.59405518 47.94775391 C31.57074722 43.84285566 27.52830138 39.75682246 23.48693466 35.66971493 C20.34398846 32.49096554 17.2046485 29.30892653 14.07574463 26.11634827 C13.5006868 25.53134048 12.92562897 24.9463327 12.33314514 24.34359741 C11.25737539 23.24914714 10.18353953 22.15279139 9.11198425 21.05421448 C5.43613157 17.27778266 5.43613157 17.27778266 0.47427744 16.01741403 C-3.4101182 16.37994133 -4.50488282 17.34486712 -7.27593899 20.03387547 C-8.14152963 20.86224387 -9.00712026 21.69061228 -9.89894092 22.54408276 C-10.81916542 23.45766045 -11.73938991 24.37123814 -12.6875 25.3125 C-13.64612328 26.24861603 -14.60535751 27.18410678 -15.56516564 28.11900795 C-18.82580188 31.31142935 -22.04909142 34.54053693 -25.2724762 37.77049255 C-26.51762355 39.01448563 -27.76298846 40.25826096 -29.00855011 41.50183922 C-32.40674019 44.89587858 -35.80183348 48.29300056 -39.19639409 51.69066942 C-42.86659335 55.36313979 -46.53967949 59.03272093 -50.21238708 62.7026825 C-57.39508188 69.88093996 -64.57508203 77.06188684 -71.75410665 84.2438147 C-77.58583235 90.07780103 -83.41853611 95.91080785 -89.25193596 101.74312019 C-90.08290071 102.57393171 -90.91386546 103.40474323 -91.77001096 104.26073085 C-93.45812765 105.94852782 -95.14624659 107.63632254 -96.83436774 109.32411505 C-112.64583682 125.13273567 -128.45424449 140.94441481 -144.26160043 156.75714809 C-157.83452712 170.33454886 -171.41008279 183.90931638 -184.98754883 197.48217773 C-200.75705052 213.24633384 -216.52493654 229.01210306 -232.29022831 244.78046948 C-233.96928541 246.45984514 -235.64834461 248.13921871 -237.32740593 249.81859016 C-238.15354842 250.64488693 -238.97969091 251.4711837 -239.83086802 252.32251976 C-245.66253736 258.15505381 -251.49536891 263.98642405 -257.32864571 269.81735039 C-264.42773314 276.9136401 -271.52505011 284.01169474 -278.62006796 291.11205339 C-282.24220497 294.73682676 -285.86515219 298.36078067 -289.49025345 301.98258972 C-292.80369503 305.29306745 -296.11484816 308.60581577 -299.42413389 311.92044771 C-300.6262004 313.12363793 -301.82912436 314.32597219 -303.03295714 315.52739518 C-304.65999853 317.15142733 -306.28397641 318.77846049 -307.90717411 320.40633297 C-308.81270246 321.31202367 -309.7182308 322.21771437 -310.6511994 323.15085024 C-312.92852814 325.56836518 -313.57023347 326.69685074 -314.1875 329.9375 C-313.00428614 337.92419355 -303.47289664 344.63258086 -297.90649414 350.09594727 C-296.14759002 351.83187499 -294.38872649 353.56784384 -292.62989807 355.30384827 C-291.24659396 356.66637568 -291.24659396 356.66637568 -289.83534431 358.05642891 C-286.93511649 360.91413247 -284.04220898 363.77917066 -281.15098572 366.64598083 C-280.66094797 367.13183027 -280.17091022 367.61767971 -279.66602284 368.11825186 C-278.66508568 369.1106879 -277.66417136 370.10314698 -276.66327941 371.09562862 C-269.9435085 377.75862914 -263.21963397 384.41726049 -256.47338867 391.0534668 C-251.90542504 395.54702895 -247.34998248 400.05287135 -242.80867475 404.57337612 C-240.41007878 406.96000633 -238.00556664 409.33990379 -235.58558846 411.70486641 C-232.89495415 414.34014033 -230.226752 416.9962978 -227.56274414 419.65844727 C-226.7602272 420.43422623 -225.95771027 421.21000519 -225.13087463 422.0092926 C-219.81280817 427.38759942 -219.81280817 427.38759942 -219.16014099 432.2049408 C-220.05269109 437.46445514 -220.05269109 437.46445514 -221.6875 439.3125 C-225.42865263 440.37131678 -227.63888567 440.84547916 -231.16377926 439.05388165 C-233.61926036 437.35958574 -235.64212798 435.61470865 -237.75453186 433.51289368 C-238.52972672 432.74622879 -239.30492157 431.9795639 -240.10360718 431.18966675 C-241.35761826 429.93429611 -241.35761826 429.93429611 -242.63696289 428.65356445 C-243.52859634 427.76864822 -244.4202298 426.88373199 -245.33888245 425.97200012 C-247.77754046 423.55096312 -250.20971908 421.12351724 -252.64021993 418.69429421 C-254.16132239 417.17461621 -255.68384133 415.65637244 -257.20687675 414.13863182 C-262.52685517 408.83714131 -267.84165675 403.53052405 -273.15161133 398.21899414 C-278.09067243 393.27873222 -283.04077153 388.34972698 -287.99620253 383.42589027 C-292.2591322 379.18916797 -296.51425792 374.94471296 -300.76346582 370.69422883 C-303.29749656 368.15968973 -305.83449068 365.62830844 -308.37938118 363.10466957 C-311.2200473 360.28708128 -314.04430974 357.453575 -316.86743164 354.6184082 C-317.70546326 353.7916156 -318.54349487 352.964823 -319.40692139 352.11297607 C-325.78493486 345.66568925 -330.26084727 339.84466254 -330.25 330.375 C-330.27191406 329.25222656 -330.29382813 328.12945312 -330.31640625 326.97265625 C-328.44911613 316.10525973 -319.88331223 308.9465798 -312.39576721 301.52629089 C-311.12031433 300.24765862 -309.84573778 298.9681517 -308.57195991 297.68785077 C-305.08069664 294.18379589 -301.57711716 290.69228976 -298.07134235 287.20276177 C-294.2883254 283.43292667 -290.51687749 279.65154795 -286.74395752 275.87161255 C-279.35609547 268.47367696 -271.9576118 261.08645257 -264.55546112 253.70281675 C-255.93631208 245.10445163 -247.327643 236.49562585 -238.71936702 227.88637749 C-223.3614136 212.52742321 -207.99382384 197.17814694 -192.62084961 181.83422852 C-177.70148036 166.94304317 -162.78914281 152.0448628 -147.88452148 137.13891602 C-146.96624589 136.22056051 -146.04797029 135.302205 -145.10186816 134.35602053 C-144.18518424 133.4392559 -143.26850031 132.52249127 -142.32403809 131.57794589 C-125.35647159 114.60899995 -108.38233458 97.64664011 -91.40512653 80.68734076 C-85.40010933 74.68835743 -79.39704781 68.68742129 -73.39459419 62.68587303 C-66.08197783 55.37462052 -58.76559466 48.0671611 -51.44447679 40.76442125 C-47.7086445 37.0378263 -43.97440314 33.30967404 -40.24444389 29.57719994 C-36.83089448 26.16146061 -33.41276944 22.75037126 -29.99090718 19.34296028 C-28.75301913 18.10869873 -27.51681006 16.87275054 -26.28244609 15.63496461 C-24.60538519 13.95376947 -22.9223081 12.27883375 -21.23758793 10.60531902 C-19.83706797 9.20691234 -19.83706797 9.20691234 -18.40825468 7.78025502 C-12.47667469 2.40024542 -7.9684501 0.16367627 0 0 Z " fill="#000000" transform="translate(329.6875,-0.3125)"/>
<path d="M0 0 C1.85667801 1.31456089 1.85667801 1.31456089 3.75909424 3.05921936 C4.45836281 3.69756777 5.15763138 4.33591618 5.8780899 4.99360847 C9.2044107 8.13884157 12.48590217 11.32199077 15.72949219 14.55249023 C16.45575302 15.27217987 17.18201385 15.99186951 17.93028259 16.73336792 C20.30535094 19.08890634 22.67654571 21.44828706 25.046875 23.80859375 C25.86198799 24.61963121 26.67710098 25.43066868 27.51691437 26.26628304 C31.82331744 30.55192155 36.12650461 34.84076041 40.42724609 39.13208008 C44.85944733 43.55317968 49.30320901 47.96247012 53.74961472 52.369277 C57.17925524 55.77276057 60.59996838 59.18511176 64.01834869 62.5999012 C65.65280101 64.2294928 67.29062125 65.8557139 68.93190765 67.47842216 C71.22684969 69.74897261 73.50878765 72.0318756 75.78808594 74.31811523 C76.46244186 74.9796611 77.13679779 75.64120697 77.83158875 76.32279968 C83.81404053 82.37171726 87.57249704 88.21008511 87.5625 96.9375 C87.58441406 98.06027344 87.60632813 99.18304688 87.62890625 100.33984375 C85.76307151 111.19877019 77.20664678 118.35996425 69.72845459 125.77947998 C68.45514339 127.05740409 67.18270482 128.33619819 65.91106153 129.61578202 C62.42559985 133.11790624 58.92781556 136.60748868 55.42781949 140.09507918 C51.65091113 143.8629269 47.88554423 147.64227875 44.1186676 151.42015076 C36.742012 158.81458525 29.35459216 166.19817417 21.96324626 173.57792154 C15.95590011 179.57623119 9.95247316 185.57843726 3.95182037 191.58344269 C3.09750971 192.43836629 2.24319904 193.29328989 1.36300017 194.17412026 C-0.37254252 195.91094186 -2.10807624 197.64777243 -3.84360108 199.38461187 C-20.11498599 215.66740075 -36.39860486 231.9379106 -52.68643627 248.2042456 C-66.65940341 262.15934196 -80.62184983 276.12489254 -94.57666016 290.09814453 C-110.78512323 306.32801752 -127.0000606 322.55137673 -143.22537208 338.7644074 C-144.95577553 340.49353667 -146.68617065 342.2226743 -148.41655731 343.95182037 C-149.26792604 344.802572 -150.11929476 345.65332362 -150.99646254 346.52985559 C-156.99324269 352.52318323 -162.98537111 358.52113753 -168.97571564 364.52089691 C-176.27686758 371.83327152 -183.58511217 379.13846756 -190.90251908 386.43457738 C-194.63520274 390.15675443 -198.36462744 393.8820472 -202.08543968 397.61609459 C-205.49302161 401.03561378 -208.90973361 404.44572716 -212.33389613 407.84864083 C-213.56954484 409.07982923 -214.8018513 410.31438327 -216.03040436 411.55265221 C-230.41275906 426.03997248 -230.41275906 426.03997248 -239.66015625 427.62890625 C-241.34431641 427.59603516 -241.34431641 427.59603516 -243.0625 427.5625 C-244.18785156 427.56378906 -245.31320313 427.56507813 -246.47265625 427.56640625 C-256.20765512 426.00320045 -261.96109297 419.59215261 -268.58984375 412.8359375 C-269.58411827 411.83673086 -270.57921442 410.83834119 -271.5750885 409.84072876 C-273.64774418 407.76047531 -275.7138034 405.67397528 -277.7746582 403.58203125 C-280.41795405 400.89893043 -283.07211647 398.22692167 -285.73055172 395.55882835 C-288.2705368 393.00888866 -290.80553537 390.45401735 -293.33984375 387.8984375 C-294.06508397 387.16810366 -294.06508397 387.16810366 -294.80497551 386.42301559 C-296.16690982 385.04952988 -297.52484013 383.67207729 -298.88256836 382.29443359 C-299.65563828 381.51151947 -300.42870819 380.72860535 -301.22520447 379.92196655 C-303.65154622 377.29442575 -303.97135303 376.25782274 -304.375 372.625 C-304 369 -304 369 -301.9375 366.5 C-298.99380192 364.99683502 -297.33601744 364.55809826 -294.08804321 365.12939453 C-289.06587185 367.2233789 -285.47726024 371.83227461 -281.76171875 375.6875 C-280.79141992 376.67154458 -279.81970125 377.654191 -278.84663391 378.63549805 C-276.29744765 381.21316037 -273.76637621 383.80788551 -271.23919678 386.40710449 C-268.15959105 389.5684761 -265.06065323 392.71087537 -261.96283436 395.85438538 C-259.55446672 398.29850556 -257.1497411 400.74585186 -254.75553894 403.20385742 C-253.89737076 404.08146729 -253.03920258 404.95907715 -252.1550293 405.86328125 C-251.39892868 406.63969971 -250.64282806 407.41611816 -249.86381531 408.21606445 C-247.49054717 410.4876186 -246.45292513 410.95287506 -243.16195202 411.29528683 C-239.27637896 410.93242283 -238.18056351 409.96540695 -235.4087677 407.27541065 C-234.54320063 406.44706892 -233.67763355 405.61872718 -232.78583717 404.76528418 C-231.86651091 403.8527404 -230.94718464 402.94019662 -230 402 C-229.0439827 401.06682753 -228.08732741 400.13430827 -227.13007164 399.20240629 C-223.88186808 396.02405398 -220.67082515 392.80918101 -217.4597168 389.59342957 C-216.21940451 388.35498899 -214.97887716 387.11676377 -213.73815536 385.87873346 C-210.35329928 382.49995637 -206.97153387 379.11810103 -203.59030795 375.73569167 C-199.93438401 372.07956275 -196.27559522 368.42630259 -192.61720276 364.77264404 C-185.46216137 357.62588616 -178.30987869 350.47637369 -171.15869862 343.32575228 C-165.34873915 337.51626866 -159.53798922 331.70757687 -153.72668457 325.89943886 C-137.24768917 309.4292404 -120.77078215 292.95695681 -104.29656005 276.48198386 C-103.40962785 275.59501171 -102.52269565 274.70803955 -101.60888672 273.79418945 C-100.27686545 272.46210686 -100.27686545 272.46210686 -98.91793466 271.10311351 C-84.5004121 256.68518379 -70.07789765 242.27225898 -55.65313351 227.86157461 C-40.83909241 213.06187934 -26.02876466 198.25847707 -11.22232723 183.45117456 C-2.91037403 175.13888897 5.40312135 166.82815924 13.72061157 158.5214138 C20.79516841 151.45593793 27.86628422 144.38704094 34.93289679 137.31361916 C38.53971567 133.70352412 42.14815045 130.09508321 45.76092339 126.49094582 C49.06485062 123.19483519 52.36416859 119.89418415 55.65980279 116.58978228 C56.85562879 115.39241067 58.05316325 114.19674251 59.25252879 113.00291636 C60.87707374 111.3853815 62.49538907 109.76186194 64.11224365 108.13664532 C65.46540995 106.78380507 65.46540995 106.78380507 66.84591293 105.40363473 C69.81667146 102.08871841 70.96636733 100.2126901 71.09008789 95.75170898 C69.54714502 90.44142832 66.48851443 87.73859716 62.55859375 83.97265625 C61.77976837 83.20259247 61.00094299 82.43252869 60.19851685 81.63912964 C58.50867259 79.97208603 56.81193314 78.31200945 55.10916138 76.65817261 C52.41455805 74.04021058 49.73920222 71.40390054 47.06811523 68.76196289 C41.3952903 63.15768888 35.69953569 57.57706801 30 52 C23.39519543 45.5371149 16.80050747 39.06444188 10.23049927 32.56613159 C7.59393687 29.968473 4.93995804 27.3895352 2.28491211 24.81079102 C0.66952772 23.21720261 -0.94501985 21.62276533 -2.55859375 20.02734375 C-3.30148651 19.31544891 -4.04437927 18.60355408 -4.80978394 17.87008667 C-8.09047835 14.59145395 -9.81101552 12.71683299 -11.01586914 8.14672852 C-11.00014764 5.0292759 -10.82527554 3.49774548 -9 1 C-5.73952371 -0.63023814 -3.62198965 -0.4673535 0 0 Z " fill="#000000" transform="translate(425,85)"/>
<path d="M0 0 C5.12440354 4.31914013 10.06770057 8.76795915 14.875 13.4375 C15.88820313 14.38206055 15.88820313 14.38206055 16.921875 15.34570312 C20.03112638 18.38315452 21.80532335 20.41406145 23.1953125 24.59765625 C22.82750885 31.00479578 18.11110421 35.13881071 13.75289059 39.49599838 C12.97488474 40.27791515 12.97488474 40.27791515 12.18116161 41.07562822 C10.44554143 42.81753434 8.7028988 44.55223646 6.96018982 46.28704834 C5.70038615 47.54844066 4.44102045 48.81027052 3.18205506 50.07249951 C-0.27610625 53.53707242 -3.74047651 56.99537785 -7.20589721 60.4526875 C-10.94299277 64.18320448 -14.67432059 67.91948267 -18.40637207 71.65504456 C-25.71662951 78.97034382 -33.03221706 86.28029038 -40.34961957 93.58844176 C-48.86626934 102.09471061 -57.3776927 110.60620098 -65.88891005 119.11790481 C-81.07083522 134.30033063 -96.25758692 149.4779194 -111.44702148 164.65283203 C-126.19609404 179.3878109 -140.94165353 194.12629357 -155.68334961 208.86865234 C-156.59163616 209.77697885 -157.4999227 210.68530535 -158.43573309 211.6211569 C-159.34242909 212.52789326 -160.2491251 213.43462962 -161.18329674 214.36884284 C-177.95464967 231.14088505 -194.72928799 247.90963792 -211.50546344 264.67685632 C-217.44450176 270.61287467 -223.38255974 276.54987264 -229.32031441 282.48717499 C-236.5512746 289.71745407 -243.78411617 296.94584511 -251.01933498 304.17186275 C-254.71304208 307.86094335 -258.40594858 311.55081601 -262.09671593 315.24283791 C-265.47158502 318.61879858 -268.8487373 321.99245718 -272.22777342 325.36424688 C-273.45333429 326.58798813 -274.67804529 327.81258119 -275.90184397 329.03808472 C-277.55852363 330.6968175 -279.21821419 332.35247674 -280.87873173 334.00736618 C-281.80194188 334.92987191 -282.72515204 335.85237764 -283.67633826 336.80283809 C-286.27443777 339.25949741 -288.1540445 340.82293955 -291.6875 341.5625 C-296.86153554 340.68389019 -299.34957005 337.63376132 -303 334 C-303.90322998 333.10716309 -303.90322998 333.10716309 -304.82470703 332.19628906 C-309.24418367 327.82481543 -313.63228935 323.4231601 -318 319 C-317.29488281 318.45859375 -316.58976563 317.9171875 -315.86328125 317.359375 C-312.77564707 314.81513074 -309.98855952 312.09967604 -307.1875 309.25 C-306.68541016 308.74339844 -306.18332031 308.23679687 -305.66601562 307.71484375 C-304.44168942 306.47885729 -303.22051378 305.2397513 -302 304 C-299.74370103 305.09252371 -297.74608279 306.17842831 -295.6875 307.625 C-292.1535219 309.43308182 -289.9297855 309.48260524 -286 309 C-281.85189797 306.53087256 -278.47176977 303.72209324 -275.06622696 300.31790924 C-274.60573057 299.86031973 -274.14523417 299.40273022 -273.67078334 298.93127435 C-272.13564786 297.40341242 -270.60770242 295.86856243 -269.07965088 294.33361816 C-267.96674913 293.22302188 -266.85341195 292.11286179 -265.73967814 291.00309992 C-262.6855607 287.95732707 -259.63770705 284.90535305 -256.59086013 281.85230947 C-253.30204987 278.55897449 -250.00749064 275.27139928 -246.71366882 271.983078 C-240.26456592 265.54286992 -233.8208836 259.09726453 -227.37912616 252.64971006 C-222.14506666 247.41113522 -216.90906006 242.17451401 -211.67165375 236.93928528 C-210.92647196 236.19440996 -210.18129017 235.44953463 -209.41352712 234.68208733 C-207.89975926 233.16895892 -206.38598691 231.65583499 -204.87221012 230.14271551 C-190.67738404 215.95359279 -176.48869531 201.75834562 -162.30209479 187.56099945 C-150.12299857 175.37296405 -137.93866291 163.19018713 -125.75048828 151.01123047 C-111.60111171 136.8725501 -97.45497644 122.73063974 -83.31401992 108.58353758 C-81.80704521 107.07592576 -80.30006632 105.56831813 -78.79308319 104.06071472 C-78.05158888 103.31891186 -77.31009457 102.577109 -76.54613073 101.81282726 C-71.31452303 96.57949094 -66.08059446 91.34848266 -60.84577179 86.11836243 C-54.47003222 79.7482243 -48.09785254 73.37455094 -41.73024973 66.99627888 C-38.47989143 63.74065451 -35.22793636 60.48666802 -31.97164726 57.23697472 C-28.99322434 54.26449376 -26.0194264 51.28746723 -23.04931232 48.30668467 C-21.97180179 47.22693271 -20.8925871 46.14887825 -19.81154159 45.07266551 C-18.34651704 43.61369099 -16.88774223 42.14874155 -15.43040848 40.68209076 C-14.6172622 39.86861978 -13.80411593 39.0551488 -12.96632886 38.21702719 C-10.14900234 35.04050386 -9.11834045 32.89600627 -8.5625 28.6875 C-9.14237784 23.79995817 -10.91648129 21.77731042 -14 18 C-11.99939529 13.08942481 -8.07867799 10.02850692 -4.3125 6.4375 C-2.25006978 4.26358707 -1.23265136 2.66230179 0 0 Z " fill="#0AAF8F" transform="translate(474,156)"/>
<path d="M0 0 C1.77514648 1.25219727 1.77514648 1.25219727 3.62109375 2.94140625 C4.3179126 3.57699463 5.01473145 4.21258301 5.73266602 4.86743164 C6.48088623 5.5711792 7.22910645 6.27492676 8 7 C8.79011475 7.74048584 9.58022949 8.48097168 10.39428711 9.24389648 C12.91336193 11.63762688 15.39674665 14.06407707 17.875 16.5 C18.72835937 17.31597656 19.58171875 18.13195312 20.4609375 18.97265625 C28.26998105 26.67049507 28.26998105 26.67049507 29 33 C27.47601225 36.60944467 26.28375102 37.81083265 23 40 C18.6673489 39.92416597 16.54592005 39.43450779 13.12890625 36.71484375 C12.28199219 35.79832031 11.43507813 34.88179688 10.5625 33.9375 C9.69753906 33.01839844 8.83257812 32.09929687 7.94140625 31.15234375 C7.30074219 30.44207031 6.66007813 29.73179687 6 29 C5.96036133 29.90540527 5.92072266 30.81081055 5.87988281 31.74365234 C4.26028046 66.9498704 -1.28166967 97.2464778 -26 124 C-26.65484375 124.73605469 -27.3096875 125.47210938 -27.984375 126.23046875 C-48.62753869 148.32924013 -77.89825945 157.34103228 -107.1875 159.125 C-108.53454296 159.21165473 -109.88154865 159.29889082 -111.22851562 159.38671875 C-114.48535869 159.59683766 -117.74245348 159.80113908 -121 160 C-120.36191406 160.62648438 -119.72382813 161.25296875 -119.06640625 161.8984375 C-117.82697266 163.12433594 -117.82697266 163.12433594 -116.5625 164.375 C-115.32693359 165.59316406 -115.32693359 165.59316406 -114.06640625 166.8359375 C-110.87018223 170.1832118 -110.70519877 172.46447196 -110.7890625 177.09375 C-111 179 -111 179 -112.125 180.9375 C-114.82676164 182.46849826 -116.89435505 182.8757742 -120 183 C-124.31322055 180.87962006 -127.5501815 177.77126635 -130.921875 174.4140625 C-131.46732971 173.87526459 -132.01278442 173.33646667 -132.57476807 172.78134155 C-133.7202675 171.6459235 -134.86310938 170.50781866 -136.00341797 169.3671875 C-137.74812723 167.62686806 -139.50822352 165.90318628 -141.26953125 164.1796875 C-142.38379011 163.07129442 -143.49710457 161.96195095 -144.609375 160.8515625 C-145.39837189 160.08412216 -145.39837189 160.08412216 -146.20330811 159.30117798 C-149.12064879 156.34677147 -150.93409524 154.23395862 -151 150 C-149.86089574 145.26760837 -146.787916 142.38104902 -143.40625 139.078125 C-142.85892212 138.53267029 -142.31159424 137.98721558 -141.74768066 137.42523193 C-140.59456583 136.278816 -139.43787034 135.13599171 -138.27783203 133.99658203 C-136.49896066 132.24897893 -134.73108813 130.49082401 -132.96484375 128.73046875 C-131.84176835 127.61655951 -130.71809104 126.50325674 -129.59375 125.390625 C-129.0635022 124.86462708 -128.53325439 124.33862915 -127.98693848 123.79669189 C-123.20928261 119.11197061 -123.20928261 119.11197061 -118.625 118.6875 C-115 119 -115 119 -112.5625 120.5 C-110.86701392 123.21277773 -110.0249727 125.39473875 -110.12890625 128.62890625 C-112.14858309 134.12641226 -117.69108896 138.19472791 -122 142 C-89.74830822 142.58403466 -62.65475971 135.53939146 -38.75 113.1875 C-15.83771757 89.07184139 -11.72597901 59.85810216 -12 28 C-12.71285156 28.78246094 -13.42570313 29.56492187 -14.16015625 30.37109375 C-15.12677148 31.39401666 -16.09426656 32.41610865 -17.0625 33.4375 C-17.52849609 33.95376953 -17.99449219 34.47003906 -18.47460938 35.00195312 C-21.14904499 37.78554938 -22.91810249 38.9791786 -26.6875 39.9375 C-30 40 -30 40 -32.9375 38.5625 C-35.22693827 35.71804639 -35.85278692 33.78511563 -35.60742188 30.12060547 C-34.87219846 27.5538247 -33.83137599 26.28536332 -32.03125 24.3203125 C-31.39799805 23.62744141 -30.76474609 22.93457031 -30.11230469 22.22070312 C-26.38094619 18.29786021 -22.58765519 14.44378148 -18.75 10.625 C-17.94820312 9.81933594 -17.14640625 9.01367188 -16.3203125 8.18359375 C-15.54945313 7.41402344 -14.77859375 6.64445312 -13.984375 5.8515625 C-13.29053711 5.15885254 -12.59669922 4.46614258 -11.88183594 3.75244141 C-7.88007379 0.02583934 -5.41427411 -0.79882733 0 0 Z " fill="#000000" transform="translate(461,302)"/>
<path d="M0 0 C2.24374694 1.81780927 4.14032319 3.52859534 6.1171875 5.59375 C6.65981232 6.14107788 7.20243713 6.68840576 7.76150513 7.25231934 C9.47809288 8.99012018 11.17621387 10.74481262 12.875 12.5 C14.03795617 13.67947727 15.20200888 14.85787443 16.3671875 16.03515625 C25.68868152 25.50567132 25.68868152 25.50567132 26.625 30 C26.45740478 35.47477729 22.35400218 38.67983686 18.6796875 42.33056641 C16.66521772 44.33273855 14.67739094 46.36012193 12.6875 48.38671875 C9.66712879 51.44583319 6.6427786 54.5006632 3.59765625 57.53515625 C2.95320557 58.178479 2.30875488 58.82180176 1.64477539 59.48461914 C-1.33634476 62.23121448 -3.99809755 62.40576889 -8.01953125 62.33984375 C-10 62 -10 62 -12.5625 59.9375 C-14.47009942 56.03936205 -14.06360378 54.18350822 -13 50 C-11.17544479 47.7484818 -9.55405275 45.97294649 -7.4375 44.0625 C-6.91736328 43.56943359 -6.39722656 43.07636719 -5.86132812 42.56835938 C-4.58752167 41.36467071 -3.29552951 40.18027648 -2 39 C-35.77448971 38.42777484 -63.90907598 44.13662187 -89.1875 67.75 C-110.98365109 90.69573712 -116.28276956 118.39805023 -116 149 C-114.948125 147.80890625 -114.948125 147.80890625 -113.875 146.59375 C-106.51446611 138.55638541 -106.51446611 138.55638541 -102.62890625 137.12890625 C-99.39473875 137.0249727 -97.21277773 137.86701392 -94.5 139.5625 C-92.31928337 143.10616452 -92.24668277 144.89099694 -93 149 C-94.24243164 150.74926758 -94.24243164 150.74926758 -95.91015625 152.58203125 C-96.54429443 153.27925293 -97.17843262 153.97647461 -97.83178711 154.69482422 C-101.87726247 158.99584645 -105.9728374 163.23933855 -110.125 167.4375 C-111.00542969 168.34693359 -111.88585937 169.25636719 -112.79296875 170.19335938 C-113.64761719 171.05638672 -114.50226563 171.91941406 -115.3828125 172.80859375 C-116.14996582 173.59032959 -116.91711914 174.37206543 -117.70751953 175.17749023 C-120.29421023 177.23389557 -121.71157967 177.85272407 -125 178 C-129.77528305 176.85370166 -132.76475844 173.70273186 -136.140625 170.328125 C-136.70827576 169.76808777 -137.27592651 169.20805054 -137.86077881 168.63104248 C-139.05459006 167.44800444 -140.24448444 166.26100231 -141.43066406 165.0703125 C-143.24421866 163.25578444 -145.07804672 161.46363759 -146.9140625 159.671875 C-148.07421569 158.51692842 -149.23311354 157.36071916 -150.390625 156.203125 C-150.9384967 155.67164856 -151.48636841 155.14017212 -152.05084229 154.59259033 C-155.3713489 151.21081633 -156.89111961 148.78236187 -157 144 C-155.86220128 141.67268444 -154.83159286 139.83159286 -153 138 C-148.83459933 137.41538236 -146.36544669 137.09696522 -142.796875 139.45703125 C-140.77511549 141.23543082 -138.87014788 143.06350542 -137 145 C-136.0012123 146.00121084 -135.00140622 147.0014082 -134 148 C-133.96036133 147.2157666 -133.92072266 146.4315332 -133.87988281 145.62353516 C-132.07785027 111.62883837 -125.70838829 82.66042625 -102 57 C-101.34515625 56.26394531 -100.6903125 55.52789062 -100.015625 54.76953125 C-78.75477633 32.00952017 -48.88808002 23.46802067 -18.8125 21.875 C-17.27275114 21.78838609 -15.73303709 21.70115084 -14.19335938 21.61328125 C-10.46261307 21.40170115 -6.73146824 21.19849254 -3 21 C-3.71027344 20.35933594 -4.42054688 19.71867187 -5.15234375 19.05859375 C-6.53099609 17.76115234 -6.53099609 17.76115234 -7.9375 16.4375 C-8.85402344 15.59058594 -9.77054688 14.74367188 -10.71484375 13.87109375 C-13.43164511 10.45767666 -13.90388512 8.32516979 -14 4 C-10.11343188 -2.3850762 -6.72627808 -2.57068802 0 0 Z " fill="#000000" transform="translate(184,24)"/>
<path d="M0 0 C2.9375 2.5625 2.9375 2.5625 5 5 C8.11034533 4.03727407 10.8646073 3.07871669 13.6875 1.4375 C18.38728275 -0.60202836 22.88393493 -1.24103042 28 -1 C31.1875 0.5 31.1875 0.5 33 3 C33.5625 6.5 33.5625 6.5 33 10 C30.15413674 13.5822055 27.64748103 14.70298071 23.25 15.75 C22.26515625 15.99234375 21.2803125 16.2346875 20.265625 16.484375 C19.51796875 16.65453125 18.7703125 16.8246875 18 17 C22.49666991 22.33979552 27.14650723 27.48229131 32 32.5 C32.68578125 33.23992187 33.3715625 33.97984375 34.078125 34.7421875 C37.90646997 38.9178969 37.90646997 38.9178969 43.17578125 40.09765625 C44.57376953 39.55431641 44.57376953 39.55431641 46 39 C46.85980469 38.67902344 47.71960938 38.35804688 48.60546875 38.02734375 C49.45753906 37.66769531 50.30960937 37.30804688 51.1875 36.9375 C59.94323356 33.70297326 67.73235014 34.09586611 76.36328125 37.6171875 C85.82711403 42.58044203 91.47923378 50.69808446 95.375 60.4375 C96.95397123 69.437636 95.88908328 76.53918216 92.875 85.15234375 C91.80418849 88.14075233 91.80418849 88.14075233 92 92 C93.29913218 93.520388 93.29913218 93.520388 95 94.8125 C97.65042084 97.29334415 97.96825018 97.81585105 98.625 101.625 C98 105 98 105 96.375 107.4375 C93.17763048 109.54103258 91.77120647 109.73945225 88 109 C86.07929236 107.52093013 84.39493856 105.95814063 82.7109375 104.21484375 C81.08867994 102.790984 81.08867994 102.790984 79.08984375 103.1328125 C76.59658599 104.16739796 74.45707286 105.47568063 72.1875 106.9375 C65.65641368 110.91917105 58.73454223 113.39401633 51 112 C49.26171875 110.6953125 49.26171875 110.6953125 48 109 C47.5625 105.5625 47.5625 105.5625 48 102 C51.5769613 97.45903495 55.75252617 96.62929267 61.125 95.125 C64.27462792 93.8925369 65.70875506 92.42891631 68 90 C64.0022877 85.82928417 59.98213339 81.68207574 55.93945312 77.55493164 C54.56747698 76.14774749 53.20184809 74.73434577 51.84277344 73.31469727 C49.88810876 71.27514022 47.91171409 69.25902617 45.9296875 67.24609375 C45.32631561 66.60659286 44.72294373 65.96709198 44.10128784 65.30821228 C42.46136634 63.66679624 40.96206226 62.23868668 39 61 C35.8042602 60.87621454 35.8042602 60.87621454 33 62 C24.90082857 64.41554236 15.4908701 66.07124744 7.5625 62.3125 C-1.04182646 57.12459728 -6.30357189 50.67612033 -9 41 C-9.89805529 32.18652711 -9.07266665 24.89079163 -5 17 C-5.51691406 16.50371094 -6.03382813 16.00742188 -6.56640625 15.49609375 C-11.95376816 9.94004731 -11.95376816 9.94004731 -12.1875 5.1875 C-11 2 -11 2 -9.375 0 C-5.83189001 -1.49183579 -3.66988838 -1.03014411 0 0 Z " fill="#010302" transform="translate(211,202)"/>
<path d="M0 0 C0.70672852 0.14147461 1.41345703 0.28294922 2.14160156 0.42871094 C10.07096806 1.89787718 17.69727613 2.30410565 25.75 2.25 C26.91660156 2.25773437 28.08320313 2.26546875 29.28515625 2.2734375 C34.20821452 2.26228675 38.81103341 2.23161247 43.578125 0.921875 C46.92543155 0.02008922 47.87217324 0.02351608 51 1 C38.56742737 13.54925897 26.12066168 26.08425437 13.65671158 38.60234928 C7.8701027 44.41476426 2.0882736 50.23178991 -3.68261719 56.05981445 C-8.71123304 61.13819154 -13.7485108 66.20778429 -18.79648232 71.2669248 C-21.47025809 73.94723166 -24.13942432 76.63179774 -26.79827118 79.32692146 C-29.29914898 81.8616437 -31.81141024 84.38448661 -34.3330307 86.89856911 C-35.7004713 88.26804915 -37.05542713 89.64995951 -38.41003418 91.03213501 C-39.22329163 91.83851913 -40.03654907 92.64490326 -40.87445068 93.47572327 C-41.93082544 94.53901147 -41.93082544 94.53901147 -43.00854111 95.62378025 C-45 97 -45 97 -47.09750748 96.85932064 C-50.09791911 95.50409027 -52.16422535 93.20120063 -54.421875 90.87109375 C-55.17914886 90.10745262 -55.17914886 90.10745262 -55.95172119 89.3283844 C-57.55833979 87.7050088 -59.15419822 86.071503 -60.75 84.4375 C-61.83914984 83.3332995 -62.92898605 82.22977555 -64.01953125 81.12695312 C-66.6877076 78.4257471 -69.34628291 75.71540937 -72 73 C-71.3113385 72.47334244 -70.622677 71.94668488 -69.91314697 71.40406799 C-66.54032881 68.62065738 -63.47829227 65.62589819 -60.38964844 62.53491211 C-59.74678894 61.89541122 -59.10392944 61.25591034 -58.44158936 60.59703064 C-56.32820383 58.49310578 -54.21857382 56.38546525 -52.109375 54.27734375 C-50.63925434 52.81043727 -49.16905875 51.34360588 -47.6987915 49.87684631 C-44.62390896 46.8079415 -41.55109062 43.73698654 -38.47949219 40.66479492 C-34.5378443 36.72304507 -30.5893437 32.78823731 -26.63906479 28.85513973 C-23.60399504 25.83116613 -20.57345846 22.8026812 -17.54419708 19.77289009 C-16.08970568 18.31958084 -14.63358764 16.8678977 -13.17583466 15.41786003 C-11.14338493 13.39516898 -9.11732313 11.36628739 -7.09277344 9.33569336 C-6.4870752 8.73561462 -5.88137695 8.13553589 -5.25732422 7.51727295 C-1.95888601 4.19866579 -1.95888601 4.19866579 0 0 Z " fill="#9AE49C" transform="translate(231,352)"/>
<path d="M0 0 C5.74512769 4.8030503 11.15878868 9.87794464 16.5 15.125 C17.3353125 15.92292969 18.170625 16.72085938 19.03125 17.54296875 C20.206875 18.70119141 20.206875 18.70119141 21.40625 19.8828125 C22.12103516 20.57777832 22.83582031 21.27274414 23.57226562 21.98876953 C25 24 25 24 24.82215977 25.87022781 C23.77236245 28.58968602 22.33893932 30.02998929 20.2731781 32.08758545 C19.4724588 32.89242874 18.6717395 33.69727203 17.84675598 34.52650452 C16.9620311 35.40044357 16.07730621 36.27438263 15.16577148 37.17480469 C14.23903625 38.101978 13.31230103 39.02915131 12.35748291 39.98442078 C9.8167767 42.52598818 7.26692297 45.05819593 4.71534228 47.58883953 C2.05007701 50.2353588 -0.60670247 52.89036867 -3.26438904 55.54449463 C-8.29805988 60.56883892 -13.33932962 65.58548656 -18.38336557 70.59942269 C-24.12558412 76.30811628 -29.85929265 82.02532453 -35.59229767 87.74326849 C-47.38541336 99.50502132 -59.18918466 111.25602021 -71 123 C-72.14434433 119.33449077 -71.50859996 117.14493789 -70.49804688 113.46679688 C-69.45440482 108.29769918 -69.71517938 103.00211067 -69.75 97.75 C-69.74226563 96.59886719 -69.73453125 95.44773437 -69.7265625 94.26171875 C-69.74371558 86.65432651 -70.50703094 79.45804361 -72 72 C-71.3113385 71.63600098 -70.622677 71.27200195 -69.91314697 70.89697266 C-66.2780067 68.52985498 -63.43722748 65.71666243 -60.38964844 62.6484375 C-59.74678894 62.00908264 -59.10392944 61.36972778 -58.44158936 60.71099854 C-56.3258043 58.60399032 -54.21738849 56.48978137 -52.109375 54.375 C-50.63947299 52.90644547 -49.16927421 51.43818791 -47.6987915 49.97021484 C-44.62242796 46.8967968 -41.54970365 43.81979773 -38.47949219 40.74023438 C-34.53955752 36.78888552 -30.59068597 32.8466093 -26.63906479 28.9069519 C-23.60378594 25.87888996 -20.57327428 22.84609317 -17.54419708 19.81182861 C-16.08957067 18.35586628 -14.63345227 16.90139301 -13.17583466 15.44842529 C-11.14327527 13.42093042 -9.11721318 11.38716042 -7.09277344 9.3515625 C-6.18422607 8.44908783 -6.18422607 8.44908783 -5.25732422 7.52838135 C-1.96033335 4.20256479 -1.96033335 4.20256479 0 0 Z " fill="#9AE49C" transform="translate(424,159)"/>
<path d="M0 0 C0.33 0 0.66 0 1 0 C1.08840346 3.93735417 1.1408564 7.87444724 1.1875 11.8125 C1.21263672 12.91271484 1.23777344 14.01292969 1.26367188 15.14648438 C1.32961047 22.59754521 0.36562484 28.94066362 -2 36 C-2.56460938 37.73056641 -2.56460938 37.73056641 -3.140625 39.49609375 C-11.09980766 60.59913793 -24.89165155 78.14335336 -45.5 87.875 C-52.13506939 90.86622684 -58.97153037 93.11357092 -66 95 C-66.59047119 95.17797119 -67.18094238 95.35594238 -67.78930664 95.53930664 C-70.5922741 96.12342587 -73.21495006 96.11169142 -76.078125 96.09765625 C-77.23828125 96.09443359 -78.3984375 96.09121094 -79.59375 96.08789062 C-80.8003125 96.07951172 -82.006875 96.07113281 -83.25 96.0625 C-84.47203125 96.05798828 -85.6940625 96.05347656 -86.953125 96.04882812 C-89.96879946 96.03704815 -92.98437498 96.02059853 -96 96 C-95.17097168 95.6599292 -95.17097168 95.6599292 -94.32519531 95.31298828 C-91.31116616 93.6110302 -89.23019787 91.45380482 -86.796875 88.9921875 C-86.0728952 88.26396286 -86.0728952 88.26396286 -85.33428955 87.52102661 C-83.80141438 85.97700134 -82.27565996 84.42615176 -80.75 82.875 C-79.70879639 81.82375991 -78.66713459 80.77297343 -77.625 79.72265625 C-75.07800536 77.15366996 -72.53734823 74.57851839 -70 72 C-71.65 71.67 -73.3 71.34 -75 71 C-75 70.67 -75 70.34 -75 70 C-74.10539062 69.85304688 -73.21078125 69.70609375 -72.2890625 69.5546875 C-64.97253653 68.19746413 -59.24525705 66.53002276 -53.0859375 62.3046875 C-50.94755545 60.9671976 -49.52021398 60.17783768 -47 60 C-45.2890625 61.21484375 -45.2890625 61.21484375 -43.625 62.9375 C-41.07629671 65.28930776 -40.28541335 65.95060154 -36.75 66.5625 C-34.0551164 66.15866313 -34.0551164 66.15866313 -32.125 64.9375 C-30.24095186 61.69275042 -30.38591227 59.68452636 -31 56 C-33.07190042 53.34569971 -35.42520944 51.16098494 -38 49 C-37.69835937 48.29230469 -37.39671875 47.58460938 -37.0859375 46.85546875 C-35.66648282 43.12301778 -34.85059231 39.31679346 -33.9765625 35.42578125 C-32.75914077 32.40170569 -31.8481188 32.36614489 -29 31 C-27.43333221 29.73043279 -27.43333221 29.73043279 -25.99145508 28.25024414 C-25.15587822 27.42412376 -25.15587822 27.42412376 -24.30342102 26.58131409 C-23.7147374 25.988582 -23.12605377 25.39584991 -22.51953125 24.78515625 C-21.90607346 24.17361191 -21.29261566 23.56206757 -20.66056824 22.93199158 C-19.36801275 21.64079456 -18.07796945 20.34707846 -16.7902832 19.05102539 C-14.81615593 17.06617579 -12.831574 15.09223272 -10.84570312 13.11914062 C-9.5905039 11.8626201 -8.33592504 10.60547948 -7.08203125 9.34765625 C-6.18989677 8.46159447 -6.18989677 8.46159447 -5.27973938 7.55763245 C-1.97071738 4.21714125 -1.97071738 4.21714125 0 0 Z " fill="#3DC0A1" transform="translate(339,244)"/>
<path d="M0 0 C4.40928095 3.90822629 7.63277353 8.58369879 8.75 14.4375 C8.99920361 19.00623291 8.75497739 22.30223414 6.75 26.4375 C0.75499003 21.47555145 -4.71427037 16.0898376 -10.1875 10.5625 C-11.06212891 9.68335938 -11.93675781 8.80421875 -12.83789062 7.8984375 C-14.97757048 5.7470654 -17.11486597 3.59338208 -19.25 1.4375 C-13.90013863 -4.20663213 -6.64762295 -3.19597257 0 0 Z " fill="#6BCF9D" transform="translate(283.25,254.5625)"/>
<path d="M0 0 C3.2586636 1.4264578 5.4024854 3.16704162 7.890625 5.6953125 C8.95410156 6.76845703 8.95410156 6.76845703 10.0390625 7.86328125 C11.13347656 8.98283203 11.13347656 8.98283203 12.25 10.125 C12.99507812 10.87910156 13.74015625 11.63320312 14.5078125 12.41015625 C16.3431342 14.26900772 18.1736191 16.13237005 20 18 C17.52964288 20.47035712 16.6039993 20.35042281 13.1875 20.4375 C9.31852258 20.35945146 8.27397 20.20402021 5.0625 17.8125 C4.381875 16.884375 3.70125 15.95625 3 15 C2.401875 14.278125 1.80375 13.55625 1.1875 12.8125 C-0.59259451 8.59648669 -0.23665462 4.51396782 0 0 Z " fill="#6ACE9C" transform="translate(217,231)"/>
</svg>
